<?xml version="1.0" encoding="UTF-8"?>
<svg id="Layer_1" data-name="Layer 1" xmlns="http://www.w3.org/2000/svg" xmlns:xlink="http://www.w3.org/1999/xlink" viewBox="0 0 184.56 184.56">
  <defs>
    <style>
      .cls-1 {
        fill: url(#linear-gradient-2);
      }

      .cls-2 {
        fill: url(#radial-gradient-7);
      }

      .cls-3 {
        fill: url(#radial-gradient-10);
      }

      .cls-4 {
        fill: #fff;
      }

      .cls-5 {
        fill: #630007;
      }

      .cls-6 {
        fill: url(#radial-gradient-8);
      }

      .cls-7 {
        fill: url(#linear-gradient-6);
      }

      .cls-8 {
        fill: url(#radial-gradient-5);
      }

      .cls-9 {
        fill: #c1272d;
      }

      .cls-10 {
        fill: url(#radial-gradient-4);
      }

      .cls-11 {
        fill: url(#linear-gradient-11);
      }

      .cls-12 {
        fill: url(#radial-gradient-6);
      }

      .cls-13 {
        fill: #111;
      }

      .cls-14 {
        fill: #004c26;
      }

      .cls-15 {
        fill: url(#linear-gradient-10);
      }

      .cls-16 {
        fill: url(#radial-gradient);
        filter: url(#outer-glow-1);
      }

      .cls-17 {
        fill: url(#linear-gradient-5);
      }

      .cls-18 {
        fill: url(#radial-gradient-2);
      }

      .cls-19, .cls-20, .cls-21 {
        fill: none;
      }

      .cls-22 {
        fill: url(#radial-gradient-3);
      }

      .cls-23 {
        fill: #353535;
      }

      .cls-24 {
        fill: #474747;
      }

      .cls-25 {
        fill: url(#linear-gradient-7);
      }

      .cls-26 {
        fill: url(#linear-gradient-9);
      }

      .cls-27 {
        fill: url(#linear-gradient-3);
      }

      .cls-20 {
        stroke: #fff;
        stroke-width: .25px;
      }

      .cls-20, .cls-21 {
        stroke-miterlimit: 10;
      }

      .cls-28 {
        fill: url(#linear-gradient);
      }

      .cls-29 {
        fill: #1e1e1e;
      }

      .cls-30 {
        fill: url(#linear-gradient-4);
      }

      .cls-31 {
        fill: url(#radial-gradient-11);
      }

      .cls-32 {
        fill: url(#radial-gradient-9);
      }

      .cls-21 {
        stroke: #000;
        stroke-width: .5px;
      }

      .cls-33 {
        fill: url(#linear-gradient-8);
      }
    </style>
    <radialGradient id="radial-gradient" cx="92.2" cy="92.26" fx="92.2" fy="92.26" r="47.18" gradientUnits="userSpaceOnUse">
      <stop offset="0" stop-color="#f2f2f2"/>
      <stop offset=".49" stop-color="#f6eab3"/>
      <stop offset=".87" stop-color="#f9e585"/>
    </radialGradient>
    <filter id="outer-glow-1" filterUnits="userSpaceOnUse">
      <feOffset dx="0" dy="0"/>
      <feGaussianBlur result="blur" stdDeviation="15"/>
      <feFlood flood-color="#fff8bb" flood-opacity="1"/>
      <feComposite in2="blur" operator="in"/>
      <feComposite in="SourceGraphic"/>
    </filter>
    <linearGradient id="linear-gradient" x1="98.77" y1="72.44" x2="127.62" y2="72.44" gradientUnits="userSpaceOnUse">
      <stop offset="0" stop-color="#ed1c24"/>
      <stop offset="1" stop-color="#000"/>
    </linearGradient>
    <linearGradient id="linear-gradient-2" x1="122.68" y1="81.07" x2="122.68" y2="93.85" gradientUnits="userSpaceOnUse">
      <stop offset=".03" stop-color="#fff"/>
      <stop offset=".08" stop-color="#f8f8f8"/>
      <stop offset=".16" stop-color="#e7e7e7"/>
      <stop offset=".24" stop-color="#cbcbcb"/>
      <stop offset=".34" stop-color="#a4a4a4"/>
      <stop offset=".44" stop-color="#727272"/>
      <stop offset=".54" stop-color="#353535"/>
      <stop offset=".62" stop-color="#000"/>
    </linearGradient>
    <radialGradient id="radial-gradient-2" cx="98.53" cy="63.95" fx="98.53" fy="63.95" r="4.48" gradientUnits="userSpaceOnUse">
      <stop offset=".4" stop-color="#ccc"/>
      <stop offset=".76" stop-color="#e6e6e6"/>
      <stop offset="1" stop-color="#f2f2f2"/>
    </radialGradient>
    <radialGradient id="radial-gradient-3" cx="99.68" cy="129.44" fx="38.82" fy="112.93" r="63.06" gradientUnits="userSpaceOnUse">
      <stop offset=".08" stop-color="#999"/>
      <stop offset=".19" stop-color="#a1a1a1"/>
      <stop offset=".37" stop-color="#b7b7b7"/>
      <stop offset=".5" stop-color="#ccc"/>
      <stop offset=".53" stop-color="#d0d0d0"/>
      <stop offset=".68" stop-color="#e2e2e2"/>
      <stop offset=".83" stop-color="#eee"/>
      <stop offset="1" stop-color="#f2f2f2"/>
    </radialGradient>
    <radialGradient id="radial-gradient-4" cx="55.82" cy="137.56" fx="35.76" fy="129.07" r="21.78" gradientUnits="userSpaceOnUse">
      <stop offset=".02" stop-color="#333"/>
      <stop offset=".19" stop-color="#212121"/>
      <stop offset=".44" stop-color="#0f0f0f"/>
      <stop offset=".71" stop-color="#030303"/>
      <stop offset=".99" stop-color="#000"/>
    </radialGradient>
    <radialGradient id="radial-gradient-5" cx="63.04" cy="156.63" fx="63.04" fy="156.63" r="7.67" xlink:href="#radial-gradient-4"/>
    <radialGradient id="radial-gradient-6" cx="112.3" cy="150.49" fx="112.3" fy="150.49" r="58.81" gradientUnits="userSpaceOnUse">
      <stop offset="0" stop-color="#333"/>
      <stop offset=".17" stop-color="#212121"/>
      <stop offset=".42" stop-color="#0f0f0f"/>
      <stop offset=".68" stop-color="#030303"/>
      <stop offset=".95" stop-color="#000"/>
      <stop offset="1" stop-color="#ff931e"/>
    </radialGradient>
    <radialGradient id="radial-gradient-7" cx="112.3" cy="150.49" fx="112.3" fy="150.49" r="58.81" xlink:href="#radial-gradient-6"/>
    <radialGradient id="radial-gradient-8" cx="112.3" cy="150.49" fx="112.3" fy="150.49" r="58.81" xlink:href="#radial-gradient-6"/>
    <radialGradient id="radial-gradient-9" cx="112.3" cy="150.49" fx="112.3" fy="150.49" r="58.81" xlink:href="#radial-gradient-6"/>
    <radialGradient id="radial-gradient-10" cx="112.3" cy="150.49" fx="112.3" fy="150.49" r="58.81" xlink:href="#radial-gradient-6"/>
    <radialGradient id="radial-gradient-11" cx="112.26" cy="150.49" fx="112.26" fy="150.49" r="58.85" xlink:href="#radial-gradient-6"/>
    <linearGradient id="linear-gradient-3" x1="114.29" y1="167.7" x2="128.02" y2="167.7" gradientUnits="userSpaceOnUse">
      <stop offset="0" stop-color="#333"/>
      <stop offset=".16" stop-color="#3e3e3e"/>
      <stop offset=".45" stop-color="#5c5c5c"/>
      <stop offset=".54" stop-color="#666"/>
      <stop offset="1" stop-color="gray"/>
    </linearGradient>
    <linearGradient id="linear-gradient-4" x1="127.53" y1="172.13" x2="136.77" y2="172.13" xlink:href="#linear-gradient-3"/>
    <linearGradient id="linear-gradient-5" x1="135.24" y1="161.98" x2="150.32" y2="161.98" xlink:href="#linear-gradient-3"/>
    <linearGradient id="linear-gradient-6" x1="141.53" y1="154.2" x2="152.74" y2="154.2" xlink:href="#linear-gradient-3"/>
    <linearGradient id="linear-gradient-7" x1="139.38" y1="143.61" x2="152.06" y2="143.61" xlink:href="#linear-gradient-3"/>
    <linearGradient id="linear-gradient-8" x1="110.16" y1="121.04" x2="110.08" y2="156.93" gradientUnits="userSpaceOnUse">
      <stop offset=".03" stop-color="#f2f2f2"/>
      <stop offset=".07" stop-color="#e8e8e8"/>
      <stop offset=".14" stop-color="#ddd"/>
      <stop offset=".22" stop-color="#dadada"/>
      <stop offset=".32" stop-color="#a7a7a7"/>
      <stop offset=".55" stop-color="#2a2a2a"/>
      <stop offset=".63" stop-color="#000"/>
    </linearGradient>
    <linearGradient id="linear-gradient-9" x1="49.37" y1="94.33" x2="60.57" y2="111.78" gradientUnits="userSpaceOnUse">
      <stop offset="0" stop-color="#666"/>
      <stop offset=".03" stop-color="#717171"/>
      <stop offset=".08" stop-color="#8f8f8f"/>
      <stop offset=".13" stop-color="#b3b3b3"/>
      <stop offset=".66" stop-color="#b3b3b3"/>
      <stop offset=".91" stop-color="#f2f2f2"/>
    </linearGradient>
    <linearGradient id="linear-gradient-10" x1="51.52" y1="103.13" x2="61" y2="103.13" gradientUnits="userSpaceOnUse">
      <stop offset="0" stop-color="#f2f2f2"/>
      <stop offset=".22" stop-color="#d8d8d8"/>
      <stop offset=".36" stop-color="#ccc"/>
      <stop offset=".36" stop-color="#ccc"/>
      <stop offset=".8" stop-color="#ccc"/>
    </linearGradient>
    <linearGradient id="linear-gradient-11" x1="60.82" y1="104.73" x2="62.02" y2="104.35" gradientUnits="userSpaceOnUse">
      <stop offset="0" stop-color="#ff0024"/>
      <stop offset=".3" stop-color="#d00a24"/>
      <stop offset=".61" stop-color="#a71424"/>
      <stop offset=".85" stop-color="#8d1924"/>
      <stop offset="1" stop-color="#841c24"/>
    </linearGradient>
  </defs>
  <circle class="cls-16" cx="92.2" cy="92.26" r="47.18"/>
  <g>
    <path class="cls-28" d="M114.64,81.44c.27,0,.53,.05,.78,.14,.36-.81,1.18-1.38,2.12-1.38,.47,0,.9,.14,1.26,.37,.41-.67,1.14-1.12,1.99-1.12,.55,0,1.06,.19,1.45,.51,.43-.52,1.07-.85,1.79-.85s1.39,.34,1.82,.88c.4-.34,.93-.54,1.49-.54,.09,0,.18,0,.27,.02-.09-.06-.19-.12-.29-.18-1.58-.97-3.41-1.46-5.24-1.76-3.76-.6-7.56-.63-11.21-1.81-2.16-.7-4.22-1.67-6.17-2.82-1.05-.62-2.06-1.31-2.92-2.17-1.06-1.07-1.69-2.32-2.05-3.78-.66-2.64-.24-4.63-.38-4.65-.11-.01-.38,1.2-.5,2.52-.1,1.15-.11,2.31-.03,3.47,.11,1.49,.29,3.07,.99,4.41,.56,1.07,1.53,1.91,2.5,2.6,1.25,.9,2.61,1.65,3.96,2.39,1.91,1.05,3.79,2.16,5.35,3.72,.36,.37,.71,.76,1.02,1.17,.41-.68,1.15-1.13,1.99-1.13Z"/>
    <path class="cls-1" d="M130.73,80.2c-.5,0-.97,.16-1.35,.44-.36-.63-1-1.08-1.76-1.17-.09-.01-.18-.02-.27-.02-.57,0-1.09,.21-1.49,.54-.43-.54-1.08-.88-1.82-.88s-1.37,.33-1.79,.85c-.4-.32-.9-.51-1.45-.51-.84,0-1.58,.45-1.99,1.12-.36-.24-.8-.37-1.26-.37-.95,0-1.76,.57-2.12,1.38-.24-.09-.5-.14-.78-.14-.85,0-1.59,.46-1.99,1.13-.21,.35-.33,.76-.33,1.19,0,1.14,.82,2.08,1.89,2.28,.14,.03,.29,.04,.43,.04,.95,0,1.76-.57,2.12-1.38,.24,.09,.5,.14,.78,.14,.84,0,1.58-.45,1.99-1.12,.36,.24,.8,.37,1.26,.37,.72,0,1.37-.33,1.79-.85,.4,.32,.9,.51,1.45,.51s1.09-.21,1.49-.54c.43,.53,1.08,.88,1.82,.88,.5,0,.97-.16,1.35-.44,.4,.71,1.16,1.18,2.03,1.18,.52,0,1-.17,1.39-.47,.57-.42,.93-1.1,.93-1.86,0-1.28-1.04-2.33-2.33-2.33Z"/>
  </g>
  <circle class="cls-18" cx="99.21" cy="62.3" r="3.39"/>
  <g>
    <g>
      <path class="cls-22" d="M149.77,119.63c-.33-.16-2.13-.98-3.74-.02-1.21,.72-1.89,2.25-1.53,3.63,.4,1.55,2.43,3.11,3.95,1.97,.61-.46,.91-1.29,.74-2.03-.17-.74-.82-1.35-1.57-1.49-.28-.05-.59-.03-.83,.12s-.37,.49-.24,.75c.13,.26,.55,.32,.7,.07,.1-.16,.1-.44,.29-.48,.07-.02,.15,.02,.21,.05,.53,.31,.71,1.09,.37,1.6-.32,.48-1.01,.65-1.54,.43-.54-.22-.9-.76-.99-1.33-.16-1.04,.6-2.1,1.61-2.39s2.15,.14,2.81,.97c1.26,1.59,.72,4.24-1.03,5.24-.99,.57-2.25,.53-3.29,.06-2.06-.93-3.25-3.39-3.06-5.59,.14-1.64,1.13-3.16,2.42-4.16,3.5-2.72,8.49-.55,11.09,2.37,.12,.13,.23,.26,.34,.4,.26,.32,.5,.64,.72,.97,.65-1.93,1.39-5.16,.85-8.78-.2-1.37-.5-2.18-.67-2.61-.3-.74-1.06-2.55-2.93-3.99-.53-.41-2.95-2.17-5.82-1.72-.64,.1-1.5,.25-2.07,.97-.64,.83-.71,2.13-.1,3.04,.55,.83,1.54,1.2,2.47,.81,.31-.13,.59-.32,.78-.6,.55-.84-.3-1.77-1.11-2-.12-.03-.26-.03-.37,.03-.27,.17-.28,.63-.22,.9,.03,.14,.09,.28,.21,.34,.17,.09,.38,0,.53-.08,.07,.07,.06,.17,0,.25-.05,.07-.14,.12-.22,.15-.22,.08-.83,.06-1.17-.39-.04-.06-.22-.3-.21-.63,.01-.56,.54-1.01,.99-1.17,.91-.32,1.83,.41,2.1,.63,.78,.62,1.05,1.43,1.14,1.72,.4,1.24,.24,2.9-.83,4.14-.96,1.11-2.55,1.57-3.98,1.39-1.55-.2-2.95-1.07-4.03-2.2-1.14-1.2-1.96-2.67-2.57-4.21-.43-1.09-.76-2.22-1.05-3.36-1.19-4.57-2.38-9.2-4.16-13.59-.74-1.81-1.57-3.7-2.62-5.44-.39,.29-.87,.47-1.39,.47-.87,0-1.63-.48-2.03-1.18-.38,.27-.85,.44-1.35,.44-.74,0-1.39-.34-1.82-.88-.4,.34-.93,.54-1.49,.54s-1.06-.19-1.45-.51c-.43,.52-1.07,.85-1.79,.85-.47,0-.9-.14-1.26-.37-.41,.67-1.14,1.12-1.99,1.12-.27,0-.53-.05-.78-.14-.36,.81-1.18,1.38-2.12,1.38-.15,0-.29-.02-.43-.04,.2,1.22,.05,2.5-.52,3.58-2.23,4.23-8.07,3.2-11.71,1.76-1.01-.4-1.99-.95-2.96-1.44-4.42-2.2-8.83-4.93-13.89-5.23-.81-.05-1.62-.03-2.42,.06-.8,.09-1.59,.24-2.37,.47-.79,.23-1.58,.52-2.3,.91-.35,.19-.71,.37-1.07,.54-.08,.04-.29,.11-.19-.07,.27-.49,.69-.83,1.16-1.12,.26-.16,.52-.3,.78-.45,3.49-2.04,7.62-1.93,11.42-.92,2.41,.65,5.58,2.11,6.64,2.6,.96,.44,1.5,.71,1.54,.64,.1-.17-2.75-2.67-6.7-4.19-1.46-.56-4.79-1.64-9.05-1.3-1.91,.15-3.77,.51-5.54,1.26-2.16,.91-4.14,2.27-5.79,3.93-.42,.42-.81,.88-1.13,1.39-.18,.28-.33,.58-.43,.89-.35,1.03-.28,2.26-.25,2.44,.03,.21,.07,.39,.14,.61,.6,1.85,2.8,3.07,4.6,2.05,.71-.4,1.5-1.13,1.38-2.02-.03-.2-.12-.4-.29-.52-.08-.06-.17-.1-.26-.07-.26,.08-.33,.44-.48,.64-.16,.22-.38,.42-.61,.57-.47,.29-1.04,.32-1.25-.28-.21-.56,0-1.12,.05-1.25,.27-.66,.82-1,1.21-1.23,.21-.13,.84-.48,1.87-.59,0,0,1.46-.16,2.95,.43,2.27,.9,4.72,3.61,4.87,6.9,.11,2.31-.42,5.03-2.06,6.76-1.75,1.85-4.31,2.98-6.67,3.82-2.46,.88-5.16,1.41-7.46,2.67-.1,.05-.19,.11-.29,.16-1.94,1.09-3.77,2.43-5.14,4.2-.73,.94-1.26,2.05-1.9,3.05-.68,1.06-1.38,2.1-2.14,3.1-1.14,1.5-2.81,2.72-4.44,3.63-1.72,.96-3.59,1.48-5.52,.88-1.42-.44-3-1.4-3.37-2.94-.13-.52,.02-1.23,.6-1.4,.76-.21-.18,1.34,.69,1.34,.89,0,.8-1.91,.71-2.43-.06-.35-.2-.69-.45-.94-.89-.79-2.29,0-2.97,.7-1.04,1.06-1.47,2.66-1.75,4.08-.31,1.58-.35,3.22-.12,4.81,.21,1.44,.6,2.85,1.07,4.23,.18,.54,.38,1.08,.58,1.61,4.16-3.83,9.56-6.59,15.33-6.11,.21,.02,.41,.04,.62,.06,4.59,.58,10.07,3.98,9.77,9.23-.11,1.93-.93,3.92-2.44,5.16-2.02,1.66-5.21,2.16-7.51,.77-1.16-.7-2.04-1.91-2.15-3.26-.19-2.38,2.03-4.69,4.43-4.53,1.24,.08,2.44,.91,2.83,2.09,.39,1.18-.14,2.64-1.26,3.18-.62,.3-1.39,.3-1.96-.08s-.87-1.16-.62-1.8c.27-.67,1.15-1.02,1.81-.71,.08,.04,.16,.09,.2,.17,.09,.21-.18,.39-.27,.6-.14,.31,.21,.68,.54,.64,.34-.05,.57-.4,.57-.74,0-.34-.2-.65-.43-.89-.64-.64-1.66-.86-2.51-.53-.84,.33-1.45,1.18-1.49,2.08-.09,2.25,2.79,3.19,4.57,2.53,1.58-.58,2.62-2.27,2.51-3.94-.11-1.57-1.18-2.92-2.54-3.64-4.38-2.36-9.48-.16-11.84,3.93-1.41,2.44-1.98,5.39-1.79,8.3,2.25,3.42,4.77,6.66,7.46,9.74,1.33,1.52,2.7,3,4.13,4.44,.3-.16,.6-.34,.88-.53,2.85-1.96,4.17-5.81,2.19-8.88-.61-.95-1.65-1.66-2.81-1.64-1.23,.01-2.4,.87-2.73,2.06-.37,1.34,.47,3.39,2.12,3.2,.66-.08,1.25-.57,1.44-1.21,.19-.63-.03-1.37-.53-1.8-.19-.16-.43-.28-.68-.27-.25,.02-.49,.21-.51,.46-.01,.25,.28,.48,.5,.36,.15-.08,.26-.29,.42-.23,.06,.02,.1,.08,.14,.13,.26,.46,.06,1.13-.42,1.36-.45,.22-1.04,.05-1.35-.35-.31-.4-.35-.96-.17-1.43,.33-.85,1.36-1.32,2.25-1.1,.89,.22,1.56,1.05,1.69,1.95,.26,1.74-1.31,3.5-3.06,3.5-.99,0-1.93-.58-2.5-1.38-1.15-1.6-.97-3.96,.13-5.54,.82-1.17,2.23-1.89,3.63-2.08,3.82-.52,6.63,3.28,7.31,6.61,.03,.15,.06,.3,.08,.45,.64,3.92-.82,7.77-3.1,10.92,3.46,2.93,7.21,5.52,11.24,7.6,.4,.2,.8,.4,1.2,.6,2.13,.93,4.53,1.44,6.78,1.92,8.49,1.82,21.04,2.67,27.59-4.36,5.09-5.47,4.1-13.96,.54-20.01-4.34-7.38-13.84-12.37-22.4-11.15-6.87,.98-12.66,6.71-11.86,13.97,.25,2.25,1.49,4.45,3.57,5.46,2.21,1.07,5.08,.58,6.74-1.26,1.87-2.07,2.18-6.51-.94-7.62-1.25-.45-2.75-.09-3.66,.88s-1.18,2.48-.65,3.7c.2,.46,.52,.89,.98,1.08,.46,.19,1.07,.07,1.32-.37s-.07-1.11-.57-1.09c-.34,.01-.73,.28-.97,.04-.09-.09-.12-.23-.12-.36-.06-1.06,.9-2.07,1.97-2.07,1.01,0,1.91,.84,2.11,1.83,.2,.99-.23,2.04-.98,2.72-1.35,1.23-3.63,1.15-5.02-.03s-1.86-3.27-1.3-5.01c1.09-3.36,5.47-5.12,8.6-3.55,1.78,.89,2.94,2.76,3.26,4.72,.63,3.89-1.8,7.98-5.17,9.81-2.52,1.37-5.68,1.4-8.37,.49-7.32-2.47-8.96-11.8-7.22-18.38,.08-.29,.16-.59,.25-.88,2.71-8.77,10.33-14.88,18.53-18.34,14.21-6,32.75-9.1,46.57-.42,3.39,2.13,6.08,4.63,8.19,7.07,.04,0,.08-.01,.12-.02,.48-.06,.97-.18,1.42-.36,.39-.16,1.67-.69,2.8-1.78,1.45-1.39,2.43-3.33,2.45-5.35s-.86-4.1-2.52-5.19c-.17-.11-.36-.22-.55-.3Z"/>
      <path class="cls-10" d="M51.11,138.61c2.36-4.09,7.46-6.29,11.84-3.93,1.35,.73,2.43,2.07,2.54,3.64,.11,1.67-.93,3.36-2.51,3.94-1.78,.65-4.66-.28-4.57-2.53,.04-.9,.64-1.76,1.49-2.08,.84-.33,1.87-.11,2.51,.53,.24,.24,.43,.55,.43,.89,0,.34-.23,.69-.57,.74-.34,.05-.68-.33-.54-.64,.09-.21,.36-.39,.27-.6-.03-.08-.12-.13-.2-.17-.66-.31-1.54,.04-1.81,.71-.25,.64,.05,1.42,.62,1.8s1.35,.37,1.96,.08c1.12-.54,1.65-2,1.26-3.18-.39-1.18-1.59-2.01-2.83-2.09-2.4-.16-4.62,2.15-4.43,4.53,.11,1.35,.99,2.56,2.15,3.26,2.3,1.39,5.49,.89,7.51-.77,1.51-1.24,2.33-3.23,2.44-5.16,.3-5.25-5.18-8.66-9.77-9.23-.21-.03-.41-.05-.62-.06-5.77-.48-11.17,2.28-15.33,6.11,.15,.41,.31,.83,.47,1.24,1.45,3.8,3.36,7.38,5.57,10.79,.11,.17,.22,.33,.33,.5-.19-2.91,.38-5.86,1.79-8.3Z"/>
      <path class="cls-8" d="M68.93,154.72c-.02-.15-.05-.3-.08-.45-.69-3.32-3.49-7.13-7.31-6.61-1.4,.19-2.81,.91-3.63,2.08-1.1,1.57-1.28,3.93-.13,5.54,.58,.81,1.51,1.38,2.5,1.38,1.75,0,3.31-1.76,3.06-3.5-.13-.9-.81-1.73-1.69-1.95-.89-.22-1.92,.25-2.25,1.1-.18,.47-.14,1.03,.17,1.43,.31,.4,.9,.57,1.35,.35,.48-.24,.68-.9,.42-1.36-.03-.06-.07-.11-.14-.13-.16-.05-.27,.15-.42,.23-.22,.12-.51-.11-.5-.36,.01-.25,.26-.44,.51-.46,.25-.02,.49,.11,.68,.27,.5,.43,.72,1.17,.53,1.8-.19,.63-.78,1.13-1.44,1.21-1.64,.2-2.49-1.86-2.12-3.2,.33-1.19,1.51-2.05,2.73-2.06,1.15-.01,2.2,.7,2.81,1.64,1.97,3.07,.66,6.92-2.19,8.88-.28,.19-.57,.37-.88,.53,.39,.39,.78,.78,1.18,1.17,1.21,1.17,2.45,2.3,3.74,3.38,2.29-3.15,3.74-7,3.1-10.92Z"/>
    </g>
    <g>
      <path class="cls-12" d="M149.08,142.23c.49-.07,.96-.18,1.41-.31-.09-.25-.19-.5-.29-.74-.34,.37-.72,.72-1.12,1.05Z"/>
      <path class="cls-2" d="M152,147.13c-.09-.44-.19-.88-.3-1.31-1.14-.54-2.34-.98-3.59-1.31,1.4,.76,2.71,1.64,3.88,2.62Z"/>
      <path class="cls-6" d="M152.73,153.25c0-.38-.03-.75-.05-1.13-.64,.28-1.33,.51-2.04,.67,.7,.23,1.4,.39,2.09,.47Z"/>
      <path class="cls-32" d="M149.01,167.93c.12-.19,.24-.39,.36-.58-.4-.22-.78-.48-1.16-.77,.25,.46,.52,.91,.8,1.36Z"/>
      <path class="cls-3" d="M134.67,178.07c.44-.13,.87-.28,1.3-.42-.83-.34-1.62-.82-2.34-1.44,.29,.67,.65,1.29,1.05,1.86Z"/>
      <path class="cls-31" d="M148.75,154.38c1.22,1.77,2.19,3.65,2.85,5.56-1.42-2.88-3.34-5.65-5.65-8.13,1.09,2.06,1.96,4.19,2.57,6.32-1.39-3.32-3.88-6.46-6.99-8.82,2.57,.46,5.1,.16,7.11-.85-.76,.81-1.66,1.5-2.68,2.05,1.58,.24,3.11-.05,4.25-.79-.58,.68-1.36,1.2-2.27,1.5,1.58,.6,3.24,.77,4.71,.51-.11-1.46-.31-2.92-.6-4.34-2.3-1.57-4.87-2.89-7.6-3.89,1.91,1.35,3.64,2.85,5.16,4.46-2.74-2.33-6.38-4-10.22-4.7,2.5-.76,4.62-2.17,5.96-3.98-.31,1.07-.8,2.09-1.46,3.04,1.52-.51,2.75-1.46,3.43-2.63-.2,.87-.67,1.68-1.34,2.36,1.49-.16,2.89-.65,4.01-1.39-.06-.14-.12-.29-.19-.43-.92-2.07-2.04-4.05-3.16-6.02-.19-.34-.38-.67-.57-1.01-.17-.3-.34-.59-.52-.88-.13-.2-.27-.4-.41-.59-1.86-2.49-4.67-4.52-7.27-6.15-13.83-8.68-32.36-5.58-46.57,.42-8.2,3.46-15.81,9.57-18.53,18.34-.09,.29-.17,.58-.25,.88-1.73,6.57-.1,15.91,7.22,18.38,2.69,.91,5.85,.88,8.37-.49,3.37-1.84,5.8-5.92,5.17-9.81-.32-1.96-1.48-3.83-3.26-4.72-3.14-1.57-7.51,.19-8.6,3.55-.57,1.74-.1,3.82,1.3,5.01s3.67,1.26,5.02,.03c.74-.68,1.18-1.73,.98-2.72-.2-.99-1.1-1.83-2.11-1.83-1.07,0-2.02,1.01-1.97,2.07,0,.13,.03,.27,.12,.36,.24,.24,.63-.03,.97-.04,.5-.02,.82,.66,.57,1.09s-.86,.56-1.32,.37c-.46-.19-.78-.62-.98-1.08-.52-1.22-.26-2.74,.65-3.7s2.41-1.33,3.66-.88c3.12,1.12,2.81,5.56,.94,7.62-1.66,1.84-4.53,2.33-6.74,1.26-2.08-1.01-3.32-3.21-3.57-5.46-.81-7.26,4.99-13,11.86-13.97,8.56-1.22,18.06,3.77,22.4,11.15,3.55,6.05,4.55,14.54-.54,20.01-6.54,7.03-19.1,6.19-27.59,4.36-2.25-.48-4.65-.99-6.78-1.92,2.31,1.12,4.71,2.07,7.15,2.88,4.84,1.59,9.82,2.64,14.87,3.28,5.09,.64,10.34,.89,15.55,.74,1.81-3.08,3.32-6.59,4.41-10.3-1.74,3.41-3.76,6.5-5.96,9.13,3.12-4.64,5.84-10,7.99-15.75-2.2,3.44-4.58,6.57-7.09,9.31,3.71-4.95,6.65-11.52,8.26-18.46,.64,4.53,2.27,8.35,4.57,10.77-1.44-.56-2.79-1.46-4-2.65,.46,2.74,1.58,4.98,3.11,6.21-1.18-.37-2.24-1.21-3.08-2.43-.03,4.26,1.12,8.08,3.11,10.25-1.51-1.1-2.83-2.67-3.89-4.63,.07,2.98,.69,5.66,1.68,7.88,1.57-.19,3.18-.44,4.8-.76,.11-.69,.18-1.39,.19-2.1-.53,1.17-1.41,2.07-2.42,2.48,1.59-2.1,2.62-4.9,2.89-7.82-.58,1.68-1.36,3.24-2.3,4.61,1.22-2.35,2.12-4.98,2.64-7.73-.84,1.73-1.83,3.34-2.94,4.8,1.53-2.54,2.4-5.73,2.45-8.95,.95,1.94,2.39,3.47,4.04,4.31-.91-.11-1.81-.37-2.67-.78,.62,1.17,1.55,2.05,2.6,2.44-.73-.05-1.46-.32-2.1-.78,.53,1.89,1.69,3.46,3.12,4.22-1.02-.34-1.99-.91-2.85-1.67,.55,1.73,1.62,3.15,2.87,4.1,.48,.37,.98,.67,1.5,.92,1.42-.53,2.79-1.15,4.09-1.86,.98-2.22,1.42-4.86,1.24-7.59-1.37,3.36-3.82,5.95-6.87,7.25,1.88-1.49,3.55-3.33,4.64-5.67,1.09-2.34,1.58-5.2,1.08-8.14-.68,1.77-1.67,3.32-2.89,4.58,1.51-2.2,2.01-5.36,1.35-8.5-.59,1.15-1.44,2.09-2.47,2.72,1.23-1.37,1.93-3.35,1.95-5.52-.94,1.24-2.05,2.3-3.29,3.15,1.77-2.47,2.7-5.79,2.62-9.32,2.5,4.65,6.18,8.63,10.32,11.17-2.72-1.27-5.37-2.87-7.9-4.76,2.83,3.61,6.12,6.76,9.68,9.25-2.41-1.28-4.72-2.96-6.83-4.96,1.77,2.77,4.02,5.18,6.52,7.02,1.21-2.35,1.98-4.89,2.39-7.52-.98-1.55-2.21-3.01-3.65-4.28Z"/>
      <path class="cls-27" d="M127.16,176.81c-1.99-2.17-3.14-5.99-3.11-10.25,.84,1.22,1.9,2.06,3.08,2.43-1.53-1.23-2.65-3.47-3.11-6.21,1.21,1.19,2.56,2.08,4,2.65-2.31-2.41-3.93-6.24-4.57-10.77-1.61,6.94-4.55,13.52-8.26,18.46,2.51-2.74,4.9-5.86,7.09-9.31-2.16,5.76-4.88,11.12-7.99,15.75,2.2-2.62,4.22-5.71,5.96-9.13-1.09,3.71-2.6,7.22-4.41,10.3,2.81-.08,5.61-.28,8.37-.59,.25-.03,.5-.06,.75-.09-.99-2.22-1.62-4.91-1.68-7.88,1.06,1.96,2.38,3.54,3.89,4.63Z"/>
      <path class="cls-30" d="M132.4,172.34c.87,.76,1.84,1.33,2.85,1.67-1.43-.77-2.6-2.34-3.12-4.22,.64,.46,1.37,.73,2.1,.78-1.05-.39-1.99-1.27-2.6-2.44,.86,.41,1.76,.67,2.67,.78-1.65-.84-3.09-2.37-4.04-4.31-.05,3.22-.92,6.41-2.45,8.95,1.11-1.45,2.1-3.06,2.94-4.8-.52,2.75-1.42,5.38-2.64,7.73,.94-1.37,1.72-2.93,2.3-4.61-.27,2.92-1.3,5.72-2.89,7.82,1.01-.41,1.88-1.31,2.42-2.48-.01,.7-.08,1.41-.19,2.1,1.65-.33,3.3-.73,4.92-1.22-.4-.57-.75-1.19-1.05-1.86,.72,.62,1.52,1.1,2.34,1.44,.27-.09,.54-.19,.8-.29-.52-.25-1.02-.55-1.5-.92-1.25-.96-2.32-2.37-2.87-4.1Z"/>
      <path class="cls-17" d="M143.49,159.16c2.11,2,4.42,3.68,6.83,4.96-3.55-2.49-6.85-5.64-9.68-9.25,2.53,1.89,5.18,3.49,7.9,4.76-4.14-2.55-7.82-6.53-10.32-11.17,.08,3.54-.85,6.85-2.62,9.32,1.24-.85,2.35-1.91,3.29-3.15-.02,2.16-.72,4.15-1.95,5.52,1.03-.63,1.88-1.56,2.47-2.72,.66,3.14,.16,6.31-1.35,8.5,1.22-1.26,2.21-2.82,2.89-4.58,.5,2.94,.02,5.8-1.08,8.14-1.09,2.34-2.76,4.18-4.64,5.67,3.05-1.3,5.5-3.89,6.87-7.25,.18,2.73-.26,5.36-1.24,7.59,1.23-.68,2.4-1.45,3.48-2.33,2.53-2.06,3.91-4.11,4.31-4.71,.12-.17,.23-.35,.35-.53-.28-.44-.55-.9-.8-1.36,.37,.29,.76,.55,1.16,.77,.23-.38,.44-.77,.64-1.16-2.49-1.84-4.74-4.25-6.52-7.02Z"/>
      <path class="cls-7" d="M152.73,153.25c-.7-.08-1.4-.23-2.09-.47,.72-.16,1.4-.38,2.04-.67,0-.13-.02-.27-.02-.4-1.47,.26-3.13,.09-4.71-.51,.91-.3,1.69-.82,2.27-1.5-1.14,.74-2.67,1.03-4.25,.79,1.02-.55,1.92-1.24,2.68-2.05-2.01,1.01-4.54,1.31-7.11,.85,3.11,2.36,5.6,5.5,6.99,8.82-.62-2.13-1.48-4.25-2.57-6.32,2.31,2.48,4.24,5.25,5.65,8.13-.66-1.91-1.62-3.79-2.85-5.56,1.43,1.27,2.67,2.73,3.65,4.28,.27-1.78,.38-3.6,.33-5.41Z"/>
      <path class="cls-25" d="M147.31,139.68c-.68,1.18-1.92,2.13-3.43,2.63,.66-.95,1.15-1.97,1.46-3.04-1.33,1.81-3.45,3.22-5.96,3.98,3.84,.69,7.48,2.37,10.22,4.7-1.52-1.62-3.25-3.12-5.16-4.46,2.73,1,5.31,2.32,7.6,3.89-.02-.08-.04-.16-.05-.25-1.17-.98-2.48-1.86-3.88-2.62,1.25,.32,2.45,.77,3.59,1.31-.27-1.07-.58-2.12-.94-3.14-.09-.25-.18-.5-.28-.76-.45,.13-.93,.24-1.41,.31,.4-.33,.78-.68,1.12-1.05-.07-.17-.14-.35-.22-.52-1.13,.74-2.52,1.23-4.01,1.39,.68-.68,1.14-1.49,1.34-2.36Z"/>
    </g>
  </g>
  <path class="cls-33" d="M74.28,140.59s-.05-.06-.06-.14c-.05-.51,.38-1.23,.63-1.65,.73-1.25,1.65-2.34,2.65-3.38,1.02-1.06,2.08-2.08,3.19-3.05,7.47-6.52,15.54-9.53,21.32-11,3.63-.95,13.82-3.49,25.11-.67,2.5,.62,4.45,1.37,5.81,1.97,.17,.07,.84,.37,1.74,.81,2.31,1.15,5.11,2.54,7.79,5.01,.99,.91,2.29,2.28,3.59,4.21-.82,.07-2.1,.11-3.62-.15-4.42-.76-6.18-3.26-9.78-5.1-.38-.19-5.21-2.59-10.66-1.91-5.65,.71-6.43,4.04-11.98,5.32-5.35,1.23-8.21-1.07-12.74-1.6-1.38-.16-2.78-.14-4.16,.05-1.74,.24-3.43,.73-5.05,1.39-2.1,.86-4.08,2-5.95,3.29-1.33,.92-2.62,1.9-3.85,2.95-.73,.62-1.45,1.24-2.13,1.9-.31,.3-.6,.63-.9,.95-.17,.18-.34,.38-.52,.55-.12,.11-.32,.32-.42,.26Z"/>
  <path d="M127.28,92.8c.52-.44,1.1-.84,1.58-1.3,1.63-1.59,.71-3.54-.2-5.18,1.46,.7,2.3,1.72,2.63,2.83,.08,.27,.28,1.1-.38,3.21-.93,2.92-2.84,6.12-3.95,5.85-.24-.06-.46-.28-.6-.43-.48-.5-.58-1.13-.65-1.48-.22-1.2,.25-2.32,1.35-3.29,.07-.07,.15-.13,.23-.2Z"/>
  <path d="M121.07,92.94c-.57-.37-1.2-.7-1.72-1.1-1.81-1.38-1.13-3.43-.43-5.17-1.37,.88-2.08,1.99-2.27,3.12-.04,.25-.15,1.13,.77,3.14,1.3,2.83,3.64,5.69,4.68,5.28,.21-.08,.39-.31,.5-.45,.42-.54,.44-1.17,.46-1.55,.08-1.22-.53-2.27-1.74-3.11-.08-.06-.17-.11-.25-.17Z"/>
  <g>
    <path class="cls-21" d="M116.24,99.65c1.62,.87,4.3,2.06,7.82,2.51,3.77,.48,6.84-.1,8.66-.59"/>
    <path class="cls-21" d="M117.31,99.16c-.07,.23-.16,.6-.13,1.07,.03,.5,.18,.88,.29,1.1"/>
    <path class="cls-21" d="M119.09,99.92c-.04,.24-.08,.62,0,1.08,.09,.49,.29,.85,.43,1.06"/>
    <path class="cls-21" d="M120.89,100.52c.02,.24,.07,.62,.27,1.04,.21,.45,.49,.75,.67,.92"/>
    <path class="cls-21" d="M122.89,100.96c0,.24,.03,.62,.2,1.06,.18,.46,.44,.78,.61,.96"/>
    <path class="cls-21" d="M131.88,100.61c.02,.24,.03,.62-.09,1.07-.13,.48-.36,.82-.51,1.02"/>
    <path class="cls-21" d="M129.98,100.99c0,.24-.04,.62-.22,1.05-.19,.46-.46,.77-.63,.95"/>
    <path class="cls-21" d="M128.1,101.21c-.06,.23-.2,.59-.47,.97-.3,.4-.63,.64-.84,.77"/>
    <path class="cls-21" d="M125.92,101.19c-.02,.24-.08,.62-.28,1.04-.22,.45-.5,.74-.68,.91"/>
  </g>
  <g>
    <path class="cls-4" d="M106.12,95.82s-.07,.22-.08,.41,0,.74,.08,.87,1.71-1.14,1.73-1.15-.19-.66-.54-.62-.83,.16-.88,.21-.31,.28-.31,.28Z"/>
    <g>
      <path class="cls-19" d="M97.06,109.31c.11,.07,.23,.13,.36,.15,.11,.02,.24,.04,.34-.01,.05-.03,.09-.07,.07-.13-.02-.07-.09-.14-.16-.17-.21-.09-.46-.14-.69-.16-.11-.01-.22-.02-.31-.02,.11,.13,.24,.26,.39,.35Z"/>
      <path d="M96.51,108.75s0-.01-.01-.02c.04,.07,.09,.13,.13,.19,0,0,0,0,.01,0-.05-.06-.09-.11-.13-.17Z"/>
      <path d="M96.3,108.98c.08-.01,.2-.02,.36-.02,0-.01-.02-.02-.03-.04-.14,.02-.25,.04-.33,.06Z"/>
      <path d="M96.2,109s.04,0,.1-.02c-.06,0-.1,.02-.1,.02Z"/>
      <path d="M96.64,108.92s0,0-.01,0c0,.01,.02,.02,.03,.04,0,0,.01,0,.02,0-.01-.01-.02-.02-.03-.04Z"/>
      <g>
        <path d="M110.28,108.74c.09-.05,.26,.22,.76,.64,.27,.23,.55,.49,.92,.51,.17,0,.34-.03,.51,0,.22,.03,.41,.17,.56,.33-.17-.21-.41-.36-.68-.41-.1-.02-.2-.02-.29-.03-.12-.02-.23-.05-.34-.1-.07-.03-.15-.06-.2-.12-.05-.06,.02-.08,.08-.07,.07,0,.14,.03,.21,.05,.25,.05,.52,.08,.76-.02,.23-.1,.4-.32,.5-.55-.33,.39-.65,.47-.79,.49-.3,.05-.61-.06-.87-.21-.31-.18-.6-.43-.83-.71-.05-.05-.08-.12-.13-.17-.06-.06-.13-.11-.2-.14-.02-.01-.05-.02-.08-.04-.02,0-.05-.03,0-.04,.08,0,.16,.02,.23,.04,.08,.03,.15,.04,.23,.04,.16,0,.28-.06,.31-.08,.04-.02,.07-.04,.09-.06-.31,.08-.49,.02-.59-.04-.05-.03-.08-.05-.45-.4-.13-.12-.19-.17-.2-.18-.16-.17-.27-.37-.36-.63-.17-.47-.18-.89-.18-.93-.05-1.38-.83-1.79-.52-2.65,.08-.22,.23-.4,.37-.59,.24-.31,.61-.67,.68-1.07,.04-.16,.04-.32,.03-.49-.02-.31-.09-.64-.22-.93-.06-.12-.13-.24-.21-.35-.02-.03-.17-.26-.22-.26,.09-.01,.27-.02,.47,.05,.15,.05,.3,.15,.41,.27-.11-.16-.21-.32-.36-.44-.17-.14-.37-.21-.59-.24-.03,0-.15-.02-.11-.07,.01-.02,.04-.03,.06-.04,.12-.06,.25-.09,.37-.15,.35-.19,.59-.58,.58-.99-.08,.18-.17,.31-.23,.4-.13,.17-.24,.24-.29,.27-.08,.05-.23,.12-.26,.09,0,0,0-.02,0-.03,0-.07,.05-.12,.09-.18,.08-.12,.15-.27,.18-.41,.01-.05,.02-.11,.02-.17,0-.03,0-.07,0-.1,0-.03-.02-.09-.01-.12-.05,.19-.19,.61-.59,.93-.06,.05-.34,.28-.43,.22-.01,0-.02-.02-.03-.03-.17-.24-.36-.66-.23-.95,.01-.03,.03-.05,.04-.07,.06-.07,.13-.11,.21-.16,.49-.36,.54-1.22,.27-1.73-.17-.33-.49-.56-.83-.67-.25-.08-.52-.11-.78-.08-.35,.04-.78,.2-.99,.5-.1,.14-.15,.31-.15,.48,0,.3,.05,.62,.1,.92,.05,.32,.14,.78,.43,.96,.15,.09,.33,.09,.5,.09,.13,0,.26,0,.4-.02,.18,0,.22,0,.26,.02,.3,.14,.33,.66,.21,.92-.1-.02-.21-.13-.31-.17-.15-.07-.31-.11-.47-.12-.47-.04-.84,.17-.84,.2,0,.03,.59-.23,.92,.03,.07,.05,.19,.18,.15,.27-.03,.09-.18,.11-.21,.11-.14,.02-.26-.03-.29-.05-.38-.17-1.11,.19-1.1,.22,0,.01,.2-.04,.57-.06,.17,0,.32,0,.43,.08,.02,.02,.08,.07,.09,.14,.02,.13-.08,.25-.17,.34-.06,.06-.1,.12-.15,.18-.13,.17-.25,.35-.36,.54,.07-.08,.17-.14,.25-.22,.26-.23,.55-.43,.85-.6,0,0,.01,0,.02,0,.05,0-.04,.18-.05,.2-.04,.09-.08,.18-.12,.26-.2,.46-.46,.93-.46,1.45,0,.1,0,.2,.02,.29,0,.06,.06,.2,.04,.26,0,.01-.01,.02-.02,.03-.21,.28-.44,.55-.66,.82-.36,.44-.72,.89-1.09,1.31-.06,.07-.14,.22-.25,.24-.03,0-.06,0-.08,0-.61-.15-1.22-.28-1.82-.46-.44-.13-.85-.2-1.66-.33-.46-.08-.92-.19-1.38-.28-.2-.04-.39-.09-.59-.11-.21-.02-.43-.03-.63-.11-.18-.07-.33-.18-.49-.28-.47-.29-1.02-.46-1.57-.47,.5,.14,1.01,.28,1.43,.57,.11,.08,.22,.16,.3,.27,.02,.03,.04,.07,.05,.11,.13-.01,.22,0,.26,.06,0,.01,.03,.05,0,.09-.03,.07-.16,.11-.32,.11-.11,.01-.27,.02-.46-.02-.08-.02-.16-.04-.23-.07-.64-.1-1.31-.07-1.86,.25,.31-.07,.63-.14,.95-.16,.49-.02,.98,.11,1.46,.21,.52,.11,1.06,.19,1.59,.26,.5,.06,1.04,.07,1.53,.19,.43,.11,.87,.21,1.3,.32,.52,.13,1.04,.26,1.56,.39,.13,.03,.27,.06,.4,.1,.18,.05,.35,.1,.53,.02,.26-.13,.45-.33,.63-.56,.32-.39,.56-.85,.93-1.21,.02-.02,.04-.03,.06-.03,.02,0,.03,.03,.03,.06,0,.04,0,.08-.02,.12-.21,.79-.57,1.55-.91,2.3-.11,.25-.23,.5-.35,.74-.05,.12-.11,.23-.17,.34-.14,.31-.46,.38-.76,.52-.21,.1-.43,.2-.64,.29-.38,.17-.76,.35-1.14,.52-.51,.23-1.02,.49-1.54,.67,0,0-.42,.17-1.26,.42-.63,.19-.79,.2-.96,.17-.47-.09-.53-.44-1.02-.71-.38-.21-.85-.21-1.18-.17,.01,.01,.02,.02,.03,.04,.09,0,.2,0,.31,.02,.23,.03,.48,.08,.69,.16,.07,.03,.14,.09,.16,.17,.02,.06-.02,.11-.07,.13-.1,.05-.24,.03-.34,.01-.13-.02-.25-.08-.36-.15-.15-.1-.27-.22-.39-.35,0,0-.01,0-.02,0,.32,.41,.63,.61,.87,.71,.23,.1,.58,.2,.57,.3,0,.05-.11,.07-.17,.08-.28,.06-.54-.02-.85-.16-.22-.1-.5-.25-.82-.48,.17,.21,.49,.53,.98,.75,.11,.05,.17,.08,.23,.1,.52,.19,1.13,.09,1.66,.02,.99-.14,1.94-.48,2.85-.88,.92-.4,1.81-.85,2.73-1.25,.16-.07,.33-.14,.49-.2,.15-.06,.27-.08,.34-.24,.45-.93,.81-1.89,1.17-2.86,.1-.26,.19-.51,.29-.77,0,0,0-.01,.01-.02,0,0,.02,0,.03,0,0,0,.01,.02,.02,.03,.12,.31,.19,.64,.26,.97,.08,.36,.16,.71,.2,1.07,.01,.12,.01,.24-.03,.35-.11,.28-.41,.55-.59,.79-.91,1.18-1.86,2.37-2.69,3.62-.35,.52-.7,1.05-1.05,1.57-.16,.24-.31,.48-.47,.73-.11,.18-.31,.35-.36,.56-.04,.15,.01,.31,.08,.45,.88,1.88,1.62,3.83,2.16,5.84,.02,.08,.22,1.01,.63,2.85,.49,2.26,.55,2.56,.6,2.56,.16-.02-.03-3.19-.45-5.05-.14-.65-.35-1.43-.35-1.43-.12-.48-.26-.96-.42-1.43-.16-.47-.33-.93-.53-1.38-.2-.45-.42-.9-.66-1.33-.07-.12-.14-.25-.22-.37-.07-.11-.15-.22-.22-.34-.05-.09-.11-.22-.05-.32,.07-.12,.16-.22,.25-.32,.64-.82,1.19-1.7,1.81-2.53,.48-.65,.98-1.3,1.51-1.92,.26-.3,.51-.61,.77-.9,.15-.17,.29-.34,.45-.5,.08-.08,.16-.16,.25-.22,.04-.03,.12-.12,.15-.03,.19,.49,.3,.99,.42,1.49,.37,1.52,.79,3.03,1.31,4.51,.66,1.87,.72,1.56,1.72,4.31,.33,.92,.67,1.86,1.04,3.14,.26,.89,.35,1.33,.77,2.94,.22,.85,.46,1.7,.69,2.55-.1-.36-.03-.85-.06-1.22-.03-.42-.07-.85-.12-1.27-.1-.85-.24-1.69-.42-2.52-.36-1.62-.93-3.11-1.62-4.61-.18-.39-.35-.78-.51-1.18-.74-1.81-1.31-3.72-1.84-5.59-.11-.38-.26-.74-.36-1.13-.05-.18-.05-.37-.07-.55-.01-.18-.02-.35-.03-.53,0-.15,0-.31,.04-.45,0-.03,.04-.06,.07-.06,.02,0,.03,.01,.05,.02,.25,.19,.36,.48,.44,.77,.17,.7,.48,1.36,.96,1.9,.32,.35,.71,.6,1.08,.88,.03,.02,.15,.09,.23,.23,.1,.17,.1,.39,.04,.58-.03,.09-.09,.18-.18,.24-.1,.06-.22,.07-.33,.04-.13-.03-.26-.12-.34-.23-.06-.07-.13-.2-.13-.3,0,.07,0,.29,.15,.47,.22,.25,.62,.26,.78,.13,.1-.08,.17-.19,.21-.32,.01-.03,.03-.11,.08-.1,.03,0,.04,.07,.04,.1,0,.07-.02,.16-.04,.23-.04,.12-.13,.23-.22,.32-.14,.13-.31,.23-.44,.37-.09,.1-.14,.18-.17,.28-.01,.05-.05,.19,0,.23,.02-.02,.03-.06,.04-.08,.07-.2,.19-.29,.36-.39,.16-.1,.32-.18,.46-.31,.15-.13,.26-.3,.29-.5,.02-.14-.03-.29,.02-.42,0-.02,.01-.03,.03-.04,.02,0,.03,0,.05,.02,.11,.1,.18,.3,.23,.43,.19,.46,.22,.97-.07,1.4-.16,.24-.33,.53-.39,.82,.01-.07,.09-.16,.13-.21,.05-.07,.11-.13,.17-.2,.11-.11,.22-.21,.32-.33,.21-.26,.32-.59,.3-.92-.02-.34-.15-.67-.34-.96-.2-.29-.47-.52-.76-.72-.57-.4-1.23-.73-1.71-1.24-.01-.01-.06-.05-.1-.11-.14-.2-.17-.5-.08-.55Zm-3.97-12.5c.01,.2-.03,.41-.12,.59-.01,.02-.05,.1-.07,.04-.06-.18-.1-.38-.08-.57,0-.06,.03-.13,.06-.19,.02-.04,.07-.14,.13-.14,.08,0,.08,.17,.08,.23,0,0,0,.02,0,.02Zm1.21-.22s-.03,.02-.04,.03c-.2,.13-.57,.24-.72,0-.03-.05-.05-.11-.06-.17,0-.04-.01-.08,0-.12,0-.08,.05-.15,.12-.2,.14-.1,.36-.15,.53-.1,.12,.04,.22,.12,.27,.23,.06,.12,.02,.24-.09,.33Z"/>
        <path d="M98.04,103.91c.1-.02,.19-.11,.19-.21,0-.01,0-.02,0-.03-.1,0-.23,.03-.38,.02-.32-.01-.54-.13-.64-.18-.17-.09-.22-.17-.33-.26-.17-.13-.45-.26-.94-.25l.31,.06s.09,.02,.16,.05c.22,.07,.39,.27,.53,.4,.09,.08,.27,.24,.53,.34,.09,.01,.17,.03,.26,.05,.1,.02,.2,.04,.3,.02Z"/>
      </g>
      <path d="M98.17,103.93c.17,0,.29-.04,.32-.11,.02-.04,0-.08,0-.09-.04-.07-.13-.07-.26-.06,0,.01,0,.02,0,.03,0,.1-.09,.19-.19,.21-.1,.02-.2,0-.3-.02-.09-.02-.17-.03-.26-.05,.07,.03,.15,.05,.23,.07,.19,.04,.35,.03,.46,.02Z"/>
    </g>
    <g>
      <path class="cls-20" d="M106.34,97.63c.07,.04,.11,.15,.11,.15"/>
      <path class="cls-20" d="M106.41,97.53c.08,0,.16,.09,.16,.09"/>
      <path class="cls-20" d="M106.56,97.36c.06,.06,.07,.17,.07,.17"/>
      <path class="cls-20" d="M106.65,97.28c.08,.03,.13,.13,.13,.13"/>
      <path class="cls-20" d="M106.82,97.17c.05,.07,.05,.18,.05,.18"/>
      <path class="cls-20" d="M106.9,97.12c.07,.04,.11,.15,.11,.15"/>
      <path class="cls-20" d="M107.05,97.02c.05,.07,.05,.18,.05,.18"/>
      <path class="cls-20" d="M107.25,96.95c.07,.04,.11,.15,.11,.15"/>
      <path class="cls-20" d="M107.18,96.98c.04,.08,.01,.19,.01,.19"/>
      <path class="cls-20" d="M107.42,96.87c.04,.08,.01,.19,.01,.19"/>
    </g>
  </g>
  <g>
    <g>
      <path d="M93.88,125.46c-.16-.04-.31-.12-.43-.23-.19-.19-.29-.47-.26-.74,.01-.13,.1-.32,0-.43-.06-.07-.15-.07-.2-.15,0-.01-.01-.02-.02-.04-.18-.07-.46-.12-.76,.06,0,.39,.03,.78,.16,1.16,.08,.25,.19,.51,.36,.71,.07,.08,.18,.18,.3,.15,.2-.04,.39-.13,.58-.2,.2-.07,.43-.12,.61-.23-.03-.06-.25-.04-.32-.06Z"/>
      <path class="cls-29" d="M92.98,123.95c-.02-.06-.02-.11-.02-.15-.05-.26-.09-.52-.12-.79-.04-.38-.07-.76-.08-1.14-.02-.36-.05-.74,0-1.1,.06-.47,.06-2.09,.05-2.3-.44-.09-.98-.43-1.07-.5-.04-.02-.14-.1-.25-.11,0,0,0,0,0,0,0,.01,0,.03,0,.04-.08,.17-.17,.34-.23,.52-.06,.17-.1,.35-.13,.53-.13,.76,.08,1.48,.42,2.15,.45,.88,.68,1.88,.68,2.87,0,0,0,.02,0,.03,.3-.17,.59-.13,.76-.06Z"/>
      <path class="cls-29" d="M95.5,122.87s-.01-.01-.01-.02c-.08-.16-.08-.39-.06-.48,.08-.5,.09-1.02,.07-1.52-.03-1.06-.13-2.11-.28-3.16-.03-.2-.04-.4-.06-.6,0-.08,0-.17,.01-.25-.1,.01-.19,.06-.19,.06-.28,.09-.71,.25-1.18,.53-.09,.06-.17,.11-.24,.15,.02,.02,.02,.06,.02,.09,0,.11-.02,.22-.03,.32-.07,.53-.1,1.11,.09,1.62,.2,.51,.61,.9,.83,1.4,.17,.38,.21,.78,.26,1.18,.02,.21,.04,.41,.06,.62,0,.04,0,.08,0,.12,.28-.16,.54-.12,.72-.06Z"/>
      <path d="M96.87,124.12c-.06-.09-.16-.04-.24-.03-.18,.03-.34,.04-.52-.02-.15-.06-.3-.14-.37-.3-.1-.22-.07-.47-.07-.71,0-.03,0-.07-.02-.1-.04-.07-.13-.1-.18-.16-.17-.06-.44-.09-.72,.06,0,0,0,0,0,0,0,.03-.01,.06-.02,.08-.03,.14,.03,.29,.06,.43,.02,.14,.05,.28,.08,.42,.07,.26,.17,.5,.34,.71,.03,.04,.07,.08,.12,.1,.13,.05,.32-.05,.44-.08,.14-.04,.28-.08,.42-.12,.21-.06,.43-.11,.63-.19,.01,0,.03-.01,.04-.02,.02-.03,0-.06-.01-.09Z"/>
    </g>
    <g>
      <path class="cls-19" d="M93.62,118.16s0,.01-.01,.02c.02-.01,.04-.03,.07-.05-.01-.01-.03,0-.05,.03Z"/>
      <path class="cls-19" d="M92.8,118.44s0,0,0,.02c.01,0,.03,0,.04,0-.02,0-.04-.02-.04-.03Z"/>
      <path class="cls-19" d="M90.07,99.36c.15,0,.39,.04,.37-.23-.02-.27-.21-.43-.42-.41-.21,.02-.37,.11-.37,.11,0,0-.13,.08-.07,.2,.06,.12,.34,.33,.49,.34Z"/>
    </g>
    <g>
      <path class="cls-29" d="M90.62,108.07c-.3-.84-.85-1.52-1.32-2.26-.39-.6-.79-1.4-.33-2.07,.1-.15,.26-.23,.26-.23,.25-.15,.4-.08,.52-.17,.15-.11,.11-.35,.01-1.14-.07-.59-.11-.97-.23-1.42-.04-.17-.1-.34-.2-.49-.09-.13-.21-.22-.27-.37-.08-.19-.11-.39-.11-.59,0,0,.01-.99,1.03-1.11,1.02-.12,1.46,1,1.5,1.46,.03,.46-.13,.99-.5,1.2-.37,.21-.77,.14-.77,.14-.03,.69,.15,1.18,.27,1.44,.14,.29,.25,.53,.51,.65,.19,.08,.31,.04,.47,.04,.1-.3,.15-.54,.19-.73,.07-.36,.08-.6,.08-.78,0-.25-.04-.44-.06-.52-.19-1.04,.08-1.44-.21-2.1-.03-.07-.39-.84-1.15-1.05-.38-.1-.72-.02-.88,.01-.03,0-.58,.14-1,.54-.87,.84-.56,2.25-.55,2.32,.04,.22,.1,.6,.12,1.06,.05,1.46-.42,1.87-.2,2.91,.03,.15,.07,.3,.14,.44,.06,.14,.15,.26,.21,.4,.15,.32,.21,.68,.23,1.03,.04,.46,.06,.91,.15,1.37,.05,.26,.15,.51,.21,.77,.1,.46,.16,.94,.18,1.41,.02,.45-.01,.89-.04,1.34,0,0,0,.17,0,.18,.02-.02,.03-.07,.04-.1,.02-.06,.05-.11,.1-.15,.02-.02,.06-.05,.08-.04,.05,.02,.04,.15,.01,.25-.02,.05-.04,.09-.06,.12,.06-.05,.14-.11,.22-.19,.04-.05,.08-.1,.11-.15,.01-.02,.08-.17,.1-.15,0,0,0,.01,.01,.02,.03,.17,.01,.34-.05,.5,.02-.04,.06-.06,.09-.09,.23-.27,.36-.62,.4-.97,.02-.17,.05-.34,.08-.51,.03-.17,.06-.35,.1-.52,.06-.29,.14-.58,.26-.85,.12-.25,.22-.46,.29-.67-.01-.04-.02-.08-.04-.11,0-.02-.01-.04-.02-.06Z"/>
      <path d="M91.01,105.44c.69,.28,.97,1.12,1.61,1.2,.27,.03,.69-.06,1.27-.72,0,0-.49-.62-.8-1.2-.15-.27-.25-.43-.35-.56-.14-.19-.27-.32-.42-.47-.29-.29-.43-.43-.57-.49-.11-.04-.19-.06-.27-.06-.06,.19-.13,.39-.23,.61-.1,.66-.17,1.22-.23,1.68Z"/>
      <path d="M96.92,116.76c-.04-.11-.09-.22-.16-.31-.06-.08-.14-.15-.18-.25-.05-.11-.07-.23-.11-.34-.04-.11-.09-.22-.14-.33-.14-.32-.32-.63-.45-.96-.14-.34-.24-.58-.4-1.08-.22-.67-.41-1.4-.77-2.84-.08-.33-.15-.59-.26-1.01-.13-.49-.24-.89-.32-1.16-.15-.47-.31-.78-.42-.98-.03-.05-.05-.08-.07-.11-.23-.25-.62-.03-1.12-.12-.23-.04-.52-.25-1.08-.67-.2-.15-.38-.28-.54-.41-.08,.66-.1,1.04-.11,1.26,0,.05,0,.22-.04,.44-.02,.11-.05,.22-.09,.32,.1,.33,.15,.68,.13,1.02-.03,.38-.2,.65-.32,1-.27,.74-.04,1.55,.07,2.3,.14,.98,.31,1.97,.4,2.95,.04,.44,.14,.89,.15,1.34,0,.23,0,.47-.06,.7-.03,.11-.07,.21-.13,.31-.05,.1-.13,.18-.17,.28,0,0,.12,0,.13,0,.06-.01,.11-.04,.15-.08,.08-.07,.13-.16,.24-.2,.06-.02,.12-.03,.18-.01,.01,0,.03,.01,.03,.02,.05,.06,.11,.11,.17,.17,.35,.3,.74,.42,1.01,.47,.04,0,.1,.02,.17,0,.02,0,.04,0,.06-.01,.02,0,.05,0,.09,0,.04,0,.12-.02,.26-.07,.08-.03,.18-.08,.29-.16,.04-.04,.07-.07,.09-.09,0,0,.01-.01,.03-.02,.03-.02,.05-.04,.07-.05,.01,0,.03-.02,.05-.03,0,0,.07-.05,.14-.09,.47-.29,.9-.44,1.18-.53,.02,0,.04-.01,.06-.02,.07-.03,.11-.08,.13-.11,.02-.03,.06-.06,.11-.1,.01,0,.05-.04,.09-.05,.16-.04,.36,.18,.38,.2,.01,.01,.07,.08,.11,.17,.07,.14,.07,.26,.09,.26,.02,0,.04-.23,.08-.3,.02-.04,.05-.07,.07-.08,0,0,0,0,0,0,.03-.03,.11-.1,.18-.08,.05,.01,.08,.06,.09,.08,.02,.03,.02,.05,.04,.09,.01,.05,.02,.1,.02,.1,0,.03,0,.06,0,.06,0,0,0-.01,.02-.06,0,0,0-.02,0-.03,.01-.09-.02-.14-.03-.22,0-.06-.02-.14,.02-.21,0,0,.06-.08,.14-.09,.06,0,.12,.03,.14,.08,.03,.07,.02,.16,.01,.23,0,.03-.01,.07,0,.1,0,0,.01,.08,.02,.08,0,0,0-.02,0-.05,0,0,0-.04,.01-.09,.01-.05,.05-.1,.07-.16,.05-.16,.02-.34-.04-.49Z"/>
      <path d="M90.81,107.48c0-.21,.03-.59,.11-1.26-.48-.37-.77-.63-.7-.78,.06-.13,.39-.1,.45-.09,.13,.01,.24,.04,.35,.09,.06-.46,.14-1.02,.23-1.68,.09-.22,.17-.43,.23-.61-.16,0-.29,.04-.47-.04-.26-.11-.38-.36-.51-.65-.12-.26-.3-.75-.27-1.44,0,0,.39,.06,.77-.14,.37-.21,.54-.74,.5-1.2-.03-.46-.48-1.58-1.5-1.46-1.02,.12-1.03,1.11-1.03,1.11,0,.21,.03,.4,.11,.59,.06,.15,.18,.24,.27,.37,.1,.14,.15,.32,.2,.49,.12,.45,.16,.83,.23,1.42,.09,.79,.14,1.03-.01,1.14-.12,.09-.27,.02-.52,.17,0,0-.16,.08-.26,.23-.46,.67-.06,1.47,.33,2.07,.48,.74,1.02,1.42,1.32,2.26,0,.02,.01,.04,.02,.06,.01,.04,.02,.07,.04,.11,.04-.1,.07-.21,.09-.32,.04-.22,.04-.39,.04-.44Z"/>
      <path class="cls-4" d="M90.92,99.9s.06,0,.1,.03c.02,0,.03,.02,.05,.03,.01,0,.03,.02,.05,.03,.05,.02,.1,.03,.1,.03,0,0-.03,0-.05,0-.11,0-.15,.06-.27,.08-.03,0-.07,.01-.13,0-.02,0-.06-.03-.15-.09-.02-.01-.04-.03-.08-.04-.03,0-.05-.01-.07-.01-.01,0-.02,0-.02,0,0,0,.06,0,.09,0,.17-.01,.25-.09,.36-.07Z"/>
      <path class="cls-4" d="M89.65,98.83s.15-.09,.37-.11c.21-.02,.4,.14,.42,.41,.02,.27-.22,.24-.37,.23-.15,0-.43-.22-.49-.34-.06-.12,.07-.2,.07-.2Z"/>
      <path class="cls-4" d="M90.69,98.89s.09-.08,.22-.09c.13,0,.25,.16,.28,.43,.03,.27-.12,.22-.21,.21-.09-.02-.27-.24-.31-.36-.04-.12,.03-.19,.03-.19Z"/>
    </g>
    <path class="cls-20" d="M89.9,99.74s.05,.04,.08,.06c0,0,0,0,0,0,0-.03,.01-.05,.02-.07,0,.01-.02,.04-.02,.07,0,0,0,0,0,0,.03,.02,.07,.05,.12,.07,0-.03,0-.05,0-.06,0,.02,0,.04,0,.06,.03,.02,.07,.03,.11,.05,0,0,.01,0,.02,0,0,0,0,0,0,0,.01-.03,.01-.06,.01-.07,0,.02,0,.04-.01,.07,0,0,0,0,0,0,.03,.01,.07,.02,.1,.03,0,0,0,0,0,0,0-.03,0-.06,0-.07,0,.02,0,.04,0,.07,0,0,0,0,0,0,.04,0,.08,.02,.12,.02,.01-.02,.03-.04,.04-.05-.01,.01-.03,.03-.04,.05,.06,0,.12,0,.16,0-.04,0-.1,0-.16,0,0,0,0,0,0,0-.01,.03-.02,.06-.02,.07,0-.02,0-.04,.02-.07,0,0,0,0,0,0-.04,0-.08,0-.12-.02,0,.02-.01,.04-.02,.06,0-.01,.01-.03,.02-.06-.03,0-.06-.02-.1-.03-.01,.02-.02,.04-.03,.05,0-.01,.02-.03,.03-.05,0,0-.01,0-.02,0-.04-.01-.08-.03-.11-.05,0,0,0,0,0,0,0,.03,.02,.06,.03,.07,0-.01-.02-.04-.03-.07,0,0,0,0,0,0-.05-.02-.08-.05-.12-.07,0,.03,0,.06,0,.07,0-.02,0-.04,0-.07-.03-.02-.06-.04-.08-.06"/>
    <g>
      <path class="cls-19" d="M94.94,106.49c-.06,.06-.12,.09-.16,.12,0,0,0,0-.01,0-.06,.05-.06,.1,.08,.25,.22,.25,.25,.37,.35,.31,.1-.06,.65-.77,.96-1.19,.31-.42,.59-.82,.62-.94,.04-.12-.02-.12-.02-.12,0,0-.13,.11-.33,.27-.5,.43-1,.85-1.33,1.12-.09,.07-.15,.13-.18,.16Z"/>
      <path class="cls-23" d="M96.61,104.28c-.14-.46-.42-.86-.49-.83-.08,.04,.22,.7,.15,1.06,0,.02-.02,.08,.01,.1,.05,.04,.22-.08,.37-.2,0-.04-.02-.08-.03-.13Z"/>
      <path class="cls-23" d="M98,103.65c-.15,.1-.3,.2-.43,.32-.11,.1-.4,.35-.52,.52-.01,.02-.06,.09-.15,.16-.04,.03-.08,.05-.1,.06,0,0,0,.02-.02,.03-.07,.16-.1,.33-.17,.49s-.16,.32-.26,.47c-.24,.38-.46,.77-.72,1.13-.09,.13-.18,.22-.33,.26-.12,.03-.23,0-.33-.08-.08-.06-.15-.14-.2-.23-.01-.02-.03-.05-.03-.08s0-.06,.03-.07c-.14,.04-.27,.08-.41,.12-.15,.05-.3,.09-.45,.14-.3,.1-.59,.2-.88,.31-.07,.03-.15,.06-.17,.13,.23-.02,.47-.03,.7,.01,.34,.07,.59,.28,.82,.53,.27,.29,.65,.33,1.01,.19,.47-.19,.75-.58,1-1,.04-.06,.05-.09,.19-.36,.32-.62,.61-1.25,1.07-1.77,.15-.17,.24-.39,.29-.61s.08-.46,.04-.67Z"/>
      <path class="cls-24" d="M94.77,106.62c.1-.07,.14-.11,.35-.28,.61-.5,1.22-1,1.8-1.53,.11-.1,.14-.14,.23-.22,.42-.37,.6-.41,.73-.63,.07-.11,.14-.29,.13-.58,0-.02-.02-.04-.04-.05-.07-.03-.17,.13-.28,.24-.1,.1-.13,.11-.49,.34-.14,.09-.33,.22-.57,.38-.15,.1-.29,.2-.45,.3-.03,.02-.07,.04-.11,.07-.87,.56-1.76,1.1-2.71,1.5-.14,.06-.27,.11-.42,.15-.06,.02-.18,.03-.3,.02-.17-.01-.34-.09-.57-.29-.44-.38-.39-.57-.73-.8-.13-.08-.36-.24-.65-.19-.21,.03-.48,.17-.56,.4-.11,.31,.17,.65,.4,.93,.18,.22,.38,.39,.57,.51,.21,.14,.8,.54,1.61,.51,.35-.01,.59-.1,1.06-.28,.56-.21,.88-.43,1-.51Z"/>
    </g>
  </g>
  <path class="cls-4" d="M89.94,98.73h0s0,.02,0,.03c0-.02,0-.04,0-.06v.03s0-.04,.01-.06v.03s.01-.05,.03-.07l-.02,.03s.04-.05,.07-.07l-.03,.02s.06-.04,.1-.06c.03-.01,.05-.05,.06-.07,0-.03,0-.07-.01-.1s-.04-.05-.07-.06c-.03,0-.06,0-.1,.01-.08,.04-.15,.1-.21,.17-.03,.04-.05,.08-.06,.12,0,.03-.01,.05-.01,.08,0,.03,0,.06,0,.09s.03,.06,.06,.07c.03,.02,.07,.02,.1,.01s.06-.03,.07-.06v-.03s.02-.04,.01-.07h0Z"/>
  <path class="cls-4" d="M91.18,98.98h0s0,.01-.01,.02c0-.02,.02-.03,.03-.05l-.02,.03s.03-.03,.05-.05l-.03,.02s.04-.03,.06-.04h-.03s.06,0,.1-.01h-.03s.08,0,.11,0c.03,0,.07-.02,.09-.04s.04-.06,.04-.09c0-.07-.05-.12-.12-.12-.1,0-.2,0-.29,.05-.04,.02-.07,.04-.1,.07-.04,.04-.06,.08-.08,.13-.01,.03,0,.07,.01,.1,.02,.03,.04,.05,.07,.06,.03,0,.07,0,.1-.01l.03-.02s.03-.03,.03-.06h0Z"/>
  <path class="cls-4" d="M90.42,99.05c.07-.07,.11-.16,.11-.26s-.02-.19-.06-.28c-.01-.03-.05-.05-.07-.06-.03,0-.07,0-.1,.01s-.05,.04-.06,.07c0,.03,0,.06,.01,.1,0,0,0,.01,0,.02v-.03s.02,.08,.02,.13v-.03s0,.06,0,.09v-.03s0,.05-.02,.07v-.03s0,.04-.02,.05l.02-.03s-.02,.02-.02,.03c-.05,.04-.05,.13,0,.18,.05,.05,.13,.05,.18,0h0Z"/>
  <path class="cls-4" d="M90.95,98.93c.05-.07,.07-.17,.06-.25-.01-.1-.05-.18-.1-.26-.02-.03-.04-.05-.07-.06-.03,0-.07,0-.1,.01-.05,.03-.08,.11-.04,.17,.02,.03,.04,.06,.06,.1v-.03s0,.06,.01,.1v-.03s0,.05,0,.07v-.03s0,.04-.01,.06v-.03s0,.04-.02,.05c-.02,.02-.02,.07-.01,.1,0,.03,.03,.06,.06,.07,.03,.02,.06,.02,.1,.01s.05-.03,.07-.06h0Z"/>
  <g>
    <path class="cls-26" d="M66.38,95.72c-1.02-1.72-3.35-2.98-5.3-2.11-.98,.43-1.75,1.39-1.88,2.47-.13,1.07,.54,2.43,1.74,2.49,.97,.05,1.88-.85,1.86-1.58-.01-.29-.18-.72-.51-.83-.17-.06-.42-.05-.58,.12-.15,.15-.22,.43-.09,.61,.08,.1,.19,.14,.25,.15-.07-.2-.03-.37,.06-.41,.1-.05,.28,.08,.33,.22,.08,.21-.06,.48-.22,.61-.77,.58-1.8-.43-1.6-1.23,.11-.45,.39-.86,.78-1.12,.85-.57,1.91-.29,2.6,.4,.99,.98,1.1,2.39,.66,3.65-.77,2.19-2.48,3.93-4.76,4.5-1.35,.34-2.24,.2-2.48,.14-.58-.14-1.5-.36-1.94-1.11-.3-.51-.22-1.01-.73-1.4-.22-.16-.4-.2-.53-.44-.17-.31-.07-.66,0-.88,.29-.97,.69-1.75,.75-1.85,.4-.69,.68-1.46,.75-2.26,.12-1.26-.57-2.29-1.01-2.96-.57-.86-1.41-1.5-1.96-2.38-.29-.46-.51-.97-.76-1.45-.19,.43-.12,.95,.08,1.38s.51,.8,.81,1.17c.43,.53,.86,1.07,1.15,1.69,.31,.66,.44,1.41,.24,2.12-.12,.4-.25,.79-.41,1.18-.16,.38-.35,.75-.5,1.13-.03,.09-.07,.18-.09,.27-.2,.67-.2,1.4-.13,2.09,.01,.15,.02,.29,.07,.43,.02,.06,.1,.2,.02,.25-.02,.01-.07,0-.09,0-.04,0-.08,0-.12,.02-.09,.02-.18,.04-.26,.08-.06,.03-.12,.06-.17,.1-.03,.02-.1,.08-.12,0,0-.02,0-.05,0-.08,0-.09,.02-.19,.03-.28,0-.09,.01-.18,.02-.27,0-.24,0-.48-.02-.73-.03-.28-.08-.56-.16-.83-.09-.29-.21-.58-.37-.84-.11-.17-.23-.33-.37-.48-1.09-1.18-2.27-2.31-3.16-3.65-.33-.5-.6-1.04-.8-1.6-.09-.25-.16-.5-.21-.76,0-.05-.07-.48-.14-.47-.09,0-.07,.57-.07,.63,0,.4,.02,.79,.07,1.18,.16,1.48,.57,3.03,1.39,4.29,.37,.57,.8,1.04,1.29,1.5,.44,.41,.89,.82,1.23,1.32,.59,.85,.66,2.02,.59,3.02-.02,.32-.08,.65-.19,.95-.19,.51-.58,.92-1.03,1.22-.18,.12-.4,.19-.55,.35-.09,.09-.25,.15-.36,.22-.13,.08-.26,.15-.39,.23l-.79,.48c-.5,.3-.99,.61-1.47,.95-.57,.4-1.13,.81-1.54,1.37-.4,.54-.68,1.17-.82,1.82-.07,.3-.11,.79,.1,1.32,.29,.73,.93,1.19,1.04,1.11,.12-.09-.5-.77-.36-1.78,.03-.19,.07-.32,.1-.41,.21-.63,.68-1.3,1.28-1.6,.57-.29,1.25-.34,1.88-.3,1.35,.08,2.52,.68,3.77,1.11,1.49,.51,3.03,.8,4.6,.88,1.99,.1,4.01-.42,5.68-1.5,3.03-1.96,4.65-5.67,4.74-9.2,.03-1.45-.13-3.14-.88-4.4Zm-14.79,4.29c-.06,.02-.15-.36-.5-.89-.48-.71-.85-.81-1.54-1.58-.05-.06-.42-.47-.78-1.03-.69-1.07-1.09-2.26-.96-2.33,.12-.07,.54,1.03,1.81,2.3,.78,.78,1.13,.87,1.52,1.57,.51,.91,.56,1.92,.46,1.95Zm1.83-.65s-.02,0-.03,0c-.02-.02-.01-.07,0-.08,.03-.14-.06-.48,.06-.96,.07-.27,.17-.45,.38-.83,.2-.35,.23-.37,.37-.58,.23-.36,.31-.8,.34-1.23,.03-.43,0-.86,0-1.29,0-.09,.04-.21,.13-.2,.05,0,.09,.06,.11,.1,.29,.54,.26,1.17,.18,1.76-.16,1.09-.61,2.14-1.23,3.06-.03,.04-.21,.22-.29,.24Z"/>
    <g>
      <path class="cls-4" d="M55.4,105.27c-.12,.11-.26,.2-.4,.28l.37,1.05c.06-.16,.12-.32,.21-.45,.03-.05,.07-.09,.11-.14l-.24-.79s-.04,.03-.05,.05Z"/>
      <path class="cls-14" d="M54.57,105.77l.49,1.63c.05-.07,.09-.15,.12-.24,.07-.18,.12-.37,.18-.56l-.37-1.05c-.14,.08-.29,.15-.43,.22Z"/>
      <path class="cls-9" d="M55.86,104.83l.26,.76c.09-.09,.19-.17,.28-.26,.03-.03,.06-.06,.09-.09l-.24-.81c-.13,.13-.26,.27-.39,.41Z"/>
      <path class="cls-5" d="M55.45,105.22l.24,.79c.13-.15,.28-.29,.43-.43l-.26-.76c-.13,.14-.26,.27-.4,.4Z"/>
      <path class="cls-9" d="M54.47,105.82c-.11,.05-.23,.11-.34,.18l.6,1.73c.13-.08,.24-.19,.33-.33l-.49-1.63s-.07,.03-.1,.05Z"/>
      <path class="cls-5" d="M53.75,106.24l.48,1.61c.09,.02,.2,0,.29-.02,.08-.03,.15-.06,.21-.11l-.6-1.73c-.13,.07-.26,.16-.38,.25Z"/>
      <path class="cls-4" d="M53.44,106.58c-.08,.13-.11,.29-.03,.44,.1,.18,.28,.19,.42,.32,.06,.05,.13,.12,.16,.2,.04,.1,.04,.2,.13,.27,.03,.03,.07,.04,.11,.05l-.48-1.61c-.12,.1-.23,.21-.31,.33Z"/>
      <path class="cls-14" d="M57.6,102.38l.51,1.7s.03,0,.05-.01c.11-.04,.21-.08,.3-.14l-.61-1.75c-.09,.05-.18,.13-.25,.21Z"/>
      <path class="cls-4" d="M57.85,102.17l.61,1.75c.1-.07,.2-.14,.28-.23l-.46-1.55c-.14-.07-.29-.04-.43,.03Z"/>
      <path class="cls-9" d="M58.31,102.15s-.02,0-.03-.01l.46,1.55c.07-.08,.13-.16,.19-.24,.05-.09,.1-.19,.11-.3,0-.08,0-.15-.03-.22-.08-.18-.25-.13-.37-.25-.07-.07-.1-.19-.13-.28-.04-.09-.1-.18-.19-.23Z"/>
      <path class="cls-4" d="M56.6,104.09l.26,.76c.12-.13,.25-.25,.38-.37l-.25-.82c-.12,.16-.26,.3-.4,.43Z"/>
      <path class="cls-14" d="M56.26,104.41s0,0,0,.01l.24,.81c.13-.13,.25-.26,.38-.38l-.26-.76c-.12,.11-.23,.22-.34,.33Z"/>
      <path class="cls-9" d="M57.42,102.62c-.08,.14-.12,.29-.16,.44l.4,1.15c.14-.05,.29-.09,.44-.13l-.51-1.7c-.07,.08-.14,.17-.18,.24Z"/>
      <path class="cls-5" d="M57.15,103.4c-.04,.09-.09,.17-.15,.25l.25,.82s.06-.05,.08-.08c.1-.09,.22-.14,.34-.19l-.4-1.15c-.03,.12-.06,.24-.11,.35Z"/>
    </g>
    <path class="cls-15" d="M51.52,102.47c0,.54,.27,1.03,.77,1.41,1.73,1.29,3.97,1.89,6.12,1.62,.46-.06,.92-.13,1.37-.26,.36-.1,1-.27,1.23-.59-.16-.08-.5,0-.66,0-1.16,.08-2.44,.1-3.56-.22-.42-.12-.74-.43-.97-.79-.46-.74-.55-1.7-1.17-2.34-.08-.08-1.08-.88-2.01-.53-.56,.22-.86,.76-.89,.83-.15,.29-.22,.58-.22,.86Z"/>
    <circle class="cls-11" cx="61.36" cy="104.56" r=".62"/>
    <path class="cls-13" d="M53.2,102.92c-.04-.08-.08-.17-.11-.25-.06-.17-.13-.51,.06-.62,.07-.04,.16-.03,.23,0,.13,.07,.26,.18,.34,.3,.17,.23,.34,.56,.28,.86-.04,.23-.24,.26-.41,.15-.17-.11-.3-.27-.4-.45Z"/>
    <path class="cls-13" d="M54.27,102.29c-.03-.08-.06-.16-.09-.23-.05-.16-.1-.45,.05-.52,.06-.03,.13,0,.18,.04,.1,.07,.2,.19,.27,.3,.13,.22,.26,.53,.21,.77-.03,.19-.19,.19-.32,.08-.13-.11-.23-.27-.31-.43Z"/>
  </g>
</svg>